<svg width="512" height="128" viewBox="0 0 512 128" fill="none" xmlns="http://www.w3.org/2000/svg">
  <rect width="512" height="128" rx="28" fill="transparent"/>
  <g filter="url(#glow)">
    <circle cx="54" cy="76" r="9" fill="url(#dot)"/>
  </g>
  <path d="M109.126 30.366C125.398 39.7611 136.349 57.3561 136.349 77.5087C136.349 107.456 112.073 131.733 82.1257 131.733C61.9731 131.733 44.3781 120.782 34.983 104.51L48.1467 96.9094C55.0342 108.417 67.6412 116.126 82.1257 116.126C103.453 116.126 120.743 98.8357 120.743 77.5087C120.743 63.0242 113.034 50.4172 101.526 43.5297L109.126 30.366Z" fill="url(#ringA)"/>
  <path d="M41.9611 102.632C33.7962 95.8917 28.5801 85.6962 28.5801 74.2816C28.5801 53.9778 45.0406 37.5173 65.3444 37.5173C76.759 37.5173 86.9545 42.7334 93.6948 50.8983L82.3375 60.2742C78.4928 55.7443 72.7554 52.8521 66.3448 52.8521C54.7584 52.8521 45.3666 62.2439 45.3666 73.8303C45.3666 80.2409 48.2588 85.9783 52.7887 89.823L41.9611 102.632Z" fill="url(#ringB)"/>
  <path d="M78.4962 93.9458C80.7275 70.4727 100.346 47.5224 124.263 46.7046C124.417 73.4325 104.438 97.1046 78.4962 93.9458Z" fill="url(#leaf)"/>
  <path d="M66.5283 108.581C73.9422 88.6715 87.9248 69.247 107.344 55.9004C93.1436 71.1293 81.9774 89.0315 75.2994 108.581H66.5283Z" fill="#132236"/>
  <path d="M177.83 90V43.08H194.894V90H177.83ZM210.812 90V43.08H227.876V90H210.812ZM209.332 36.256C209.332 31.128 213.5 27.472 219.28 27.472C225.06 27.472 229.228 31.128 229.228 36.256C229.228 41.384 225.06 44.976 219.28 44.976C213.5 44.976 209.332 41.384 209.332 36.256ZM242.306 90V43.08H258.666L259.482 49.84C263.522 44.392 269.878 41.6 278.214 41.6C289.91 41.6 297.094 49.104 297.094 61.888V90H280.03V65.992C280.03 59.168 276.95 55.512 270.914 55.512C264.43 55.512 259.37 60.252 259.37 69.1V90H242.306ZM327.812 91.48C311.836 91.48 299.308 81.352 299.308 66.54C299.308 51.792 311.9 41.6 327.812 41.6C343.788 41.6 356.38 51.792 356.38 66.54C356.38 81.352 343.852 91.48 327.812 91.48ZM327.812 77.952C334.748 77.952 339.316 73.02 339.316 66.54C339.316 60.124 334.748 55.128 327.812 55.128C320.94 55.128 316.372 60.124 316.372 66.54C316.372 73.02 320.94 77.952 327.812 77.952ZM359.44 90V43.08H375.736L376.552 50.928C380.336 45.224 386.052 41.6 393.62 41.6C405.252 41.6 412.18 49.104 412.18 61.888V90H395.116V65.992C395.116 59.168 392.228 55.512 386.512 55.512C380.156 55.512 376.504 60.188 376.504 68.78V90H359.44ZM438.396 91.48C425.42 91.48 414.652 86.48 409.46 78.144L421.092 69.936C425.356 75.256 431.328 78.272 437.852 78.272C442.72 78.272 445.544 76.6 445.544 73.904C445.544 70.888 441.568 70.008 434.448 68.592C424.064 66.536 412.988 63.456 412.988 53.328C412.988 45.032 420.3 41.6 432.7 41.6C442.444 41.6 451.804 45.096 457.52 52.152L446.656 60.456C442.872 56.032 438.172 53.904 432.988 53.904C429.012 53.904 426.572 55.128 426.572 57.504C426.572 60.264 430.164 61.208 437.02 62.688C447.34 64.872 459.192 67.312 459.192 78.208C459.192 87.12 450.664 91.48 438.396 91.48Z" fill="#F7FAFF"/>
  <defs>
    <linearGradient id="ringA" x1="36" y1="36" x2="124" y2="124" gradientUnits="userSpaceOnUse">
      <stop stop-color="#A9E34B"/>
      <stop offset="0.55" stop-color="#38C8A2"/>
      <stop offset="1" stop-color="#2756FF"/>
    </linearGradient>
    <linearGradient id="ringB" x1="32" y1="47" x2="91" y2="102" gradientUnits="userSpaceOnUse">
      <stop stop-color="#0A3D2B"/>
      <stop offset="0.55" stop-color="#1F8A5F"/>
      <stop offset="1" stop-color="#1E2E8F"/>
    </linearGradient>
    <linearGradient id="leaf" x1="82" y1="91" x2="122" y2="48" gradientUnits="userSpaceOnUse">
      <stop stop-color="#4FB55A"/>
      <stop offset="1" stop-color="#9EDD5D"/>
    </linearGradient>
    <radialGradient id="dot" cx="0" cy="0" r="1" gradientUnits="userSpaceOnUse" gradientTransform="translate(54 76) rotate(90) scale(12)">
      <stop stop-color="#CFF87D"/>
      <stop offset="1" stop-color="#61DFC3"/>
    </radialGradient>
    <filter id="glow" x="30" y="52" width="48" height="48" filterUnits="userSpaceOnUse" color-interpolation-filters="sRGB">
      <feFlood flood-opacity="0" result="BackgroundImageFix"/>
      <feBlend mode="normal" in="SourceGraphic" in2="BackgroundImageFix" result="shape"/>
      <feGaussianBlur stdDeviation="7.5" result="effect1_foregroundBlur_1_2"/>
    </filter>
  </defs>
</svg>
